#!OML:ASF F:\VICON\USERDATA\INSTALL\rory3\rory3.ASF
:FULLY-SPECIFIED
:DEGREES
555
root 0.86606 16.222 4.35709 -164.792 13.3083 -178.105
lowerback -2.51419 6.56029 -3.92962
upperback -3.1372 9.04833 -4.96674
thorax -1.63104 4.67469 -2.83896
lowerneck -23.5264 -2.65621 0.279161
upperneck 25.6266 -8.529 10.717
head 13.0879 -2.71311 2.45452
rclavicle -3.77691e-014 2.54444e-014
rhumerus -28.9574 19.7294 -70.4658
rradius 82.7534
rwrist -79.2712
rhand 38.0576 -9.21488
rfingers 7.12502
rthumb 60.7664 -22.1646
lclavicle -3.77691e-014 2.54444e-014
lhumerus -40.4296 -12.1071 62.667
lradius 52.9623
lwrist 58.0911
lhand 36.8262 22.5984
lfingers 7.12502
lthumb 59.7163 36.6731
rfemur -25.5257 1.58656 386.841
rtibia 71.1712
rfoot 10.6426 -27.041
rtoes 16.6931
lfemur -58.5712 0.865942 -22.1187
ltibia 69.3466
lfoot -5.16463 14.6594
ltoes -16.3271
556
root 0.845917 16.1234 4.17466 -166.256 11.9336 -177.871
lowerback -1.45042 6.07112 -3.82927
upperback -2.79585 8.29181 -4.48036
thorax -1.94363 4.27511 -2.5094
lowerneck -22.6473 -2.47698 0.730576
upperneck 25.8859 -8.47104 10.5034
head 12.9802 -2.72572 2.31054
rclavicle -7.55382e-015 -1.90833e-014
rhumerus -29.3645 18.5573 -66.6213
rradius 81.4027
rwrist -79.0256
rhand 34.0815 -3.48365
rfingers 7.12502
rthumb 57.3342 -19.7878
lclavicle -7.55382e-015 -1.90833e-014
lhumerus -37.234 -13.3625 63.6523
lradius 55.2243
lwrist 59.1527
lhand 36.6875 22.3513
lfingers 7.12502
lthumb 59.5972 36.5476
rfemur -27.9807 0.735141 387.122
rtibia 77.221
rfoot 22.8152 -23.2189
rtoes 25.1531
lfemur -55.1743 -0.806308 -21.8264
ltibia 68.7927
lfoot -8.86877 13.2935
ltoes -25.3332
557
root 0.844653 16.0094 4.01834 -166.722 10.6031 -177.419
lowerback -1.02496 5.57389 -3.93837
upperback -2.7795 7.56829 -3.89766
thorax -2.26732 3.90601 -1.90246
lowerneck -21.5313 -2.41789 1.16187
upperneck 25.8599 -8.4367 10.1405
head 12.6985 -2.78126 2.10803
rclavicle 7.7526e-015 -9.70069e-014
rhumerus -29.1551 17.2962 -62.2403
rradius 79.9342
rwrist -78.4721
rhand 39.6394 -6.12993
rfingers 7.12502
rthumb 62.0956 -17.5043
lclavicle 7.7526e-015 -9.70069e-014
lhumerus -33.834 -14.9853 64.6654
lradius 57.7191
lwrist 60.1412
lhand 36.5713 22.963
lfingers 7.12502
lthumb 59.4974 37.2604
rfemur -32.0188 0.205459 387.741
rtibia 83.4469
rfoot 33.868 -18.2815
rtoes 25.5083
lfemur -53.0184 -2.14712 -21.275
ltibia 67.9639
lfoot -12.6433 12.5287
ltoes -24.7962
558
root 0.834021 15.9127 3.8396 -167.676 8.73184 -177.291
lowerback -0.41397 4.88249 -4.07234
upperback -2.41962 6.58226 -3.26978
thorax -2.32837 3.3994 -1.21283
lowerneck -20.5855 -2.42566 1.48801
upperneck 25.6591 -8.34346 9.64685
head 12.374 -2.82101 1.88682
rclavicle 5.06901e-014 4.77083e-015
rhumerus -28.1811 15.9587 -57.3394
rradius 78.4779
rwrist -78.1097
rhand 42.3981 -8.7869
rfingers 7.12502
rthumb 64.3508 -17.0088
lclavicle 5.06901e-014 4.77083e-015
lhumerus -30.0294 -16.6584 65.5878
lradius 60.5787
lwrist 61.0838
lhand 36.6643 24.3062
lfingers 7.12502
lthumb 59.5772 38.5228
rfemur -35.4825 -1.37684 387.942
rtibia 89.4771
rfoot 41.357 -13.6897
rtoes 20.4285
lfemur -50.2459 -3.83877 -21.1206
ltibia 66.7445
lfoot -15.8712 11.8412
ltoes -22.8181
559
root 0.818898 15.8348 3.65396 -168.949 6.71036 -177.556
lowerback 0.446121 4.10816 -4.54935
upperback -1.83572 5.47684 -2.63491
thorax -2.30357 2.83663 -0.318777
lowerneck -20.269 -2.32732 1.70944
upperneck 25.6834 -8.06509 9.07387
head 12.2588 -2.75219 1.68618
rclavicle -6.36111e-015 1.74931e-014
rhumerus -26.7063 14.7741 -52.2227
rradius 77.3695
rwrist -77.5049
rhand 43.1413 -9.0887
rfingers 7.12502
rthumb 64.9424 -16.3611
lclavicle -6.36111e-015 1.74931e-014
lhumerus -25.4904 -18.2968 66.2725
lradius 63.0323
lwrist 61.8451
lhand 36.9278 25.9143
lfingers 7.12502
lthumb 59.8033 39.8994
rfemur -38.6584 -3.66671 387.476
rtibia 95.3994
rfoot 47.2359 -11.5582
rtoes 15.1827
lfemur -47.1356 -5.51419 -21.5985
ltibia 65.3413
lfoot -18.378 11.3856
ltoes -21.2723
560
root 0.820611 15.7568 3.49929 -169.974 4.45139 -178.217
lowerback 1.26736 3.20536 -5.6899
upperback -1.23341 4.20229 -2.03665
thorax -2.23444 2.20345 0.935046
lowerneck -20.0353 -2.12048 1.95941
upperneck 25.4722 -7.61336 8.58993
head 12.0678 -2.58857 1.54224
rclavicle -4.67144e-014 5.56597e-015
rhumerus -24.8408 13.4592 -47.1008
rradius 76.4641
rwrist -77.0773
rhand 42.6216 -8.73229
rfingers 7.12502
rthumb 64.5295 -16.6735
lclavicle -4.67144e-014 5.56597e-015
lhumerus -20.32 -20.1545 66.5097
lradius 65.1069
lwrist 62.1152
lhand 37.7581 27.5344
lfingers 7.12502
lthumb 60.5121 40.7656
rfemur -42.714 -6.39429 386.622
rtibia 101.532
rfoot 51.9516 -12.0206
rtoes 13.7499
lfemur -44.6568 -7.21675 -22.5478
ltibia 64.1067
lfoot -20.6161 11.005
ltoes -18.4638
561
root 0.831212 15.6827 3.35045 -170.82 2.42868 -179.078
lowerback 1.78995 2.29294 -7.27777
upperback -0.527764 2.93538 -1.41668
thorax -1.83823 1.56657 2.50153
lowerneck -19.2984 -1.95002 1.93252
upperneck 24.5994 -7.06023 8.367
head 11.5431 -2.40329 1.55929
rclavicle -3.35946e-014 -1.66979e-014
rhumerus -22.459 12.0208 -41.9934
rradius 75.4106
rwrist -77.0628
rhand 41.922 -8.7183
rfingers 7.12502
rthumb 63.968 -17.5248
lclavicle -3.35946e-014 -1.66979e-014
lhumerus -14.5268 -22.0329 66.1299
lradius 66.8861
lwrist 61.8029
lhand 39.355 26.8543
lfingers 7.12502
lthumb 61.8584 38.5234
rfemur -47.2883 -9.00805 385.433
rtibia 107.613
rfoot 54.4585 -9.99453
rtoes 13.1762
lfemur -42.5873 -8.75401 -23.8552
ltibia 63.1225
lfoot -22.7177 11.0484
ltoes -15.0238
562
root 0.836206 15.6126 3.20283 -171.441 0.556157 -179.619
lowerback 2.54363 1.40847 -8.38713
upperback -0.107536 1.67353 -0.796995
thorax -1.75461 0.933178 3.80326
lowerneck -18.0329 -1.9043 1.57075
upperneck 23.3544 -6.59127 8.37003
head 10.8112 -2.28586 1.69986
rclavicle 1.799e-014 1.66979e-014
rhumerus -20.3002 10.935 -37.1577
rradius 74.4488
rwrist -77.1032
rhand 40.871 -8.72134
rfingers 7.12502
rthumb 63.1131 -18.7566
lclavicle 1.799e-014 1.66979e-014
lhumerus -8.96678 -23.8545 65.025
lradius 68.7112
lwrist 61.5457
lhand 37.2613 24.4943
lfingers 7.12502
lthumb 60.0888 38.181
rfemur -52.1526 -11.4457 384.406
rtibia 113.313
rfoot 56.2551 -5.2675
rtoes 12.3006
lfemur -41.0631 -9.95718 -24.9994
ltibia 62.6319
lfoot -24.1965 12.245
ltoes -15.4822
563
root 0.843351 15.6117 3.04355 -172.4 -2.01962 -179.941
lowerback 4.18423 0.46179 -8.93264
upperback 0.133677 0.120339 -0.325374
thorax -2.23724 0.126778 4.67023
lowerneck -18.6404 -1.08146 1.56804
upperneck 24.0832 -5.59507 8.46936
head 11.1634 -1.78531 1.88932
rclavicle 8.94531e-016 1.90833e-014
rhumerus -18.6585 10.2578 -32.9117
rradius 73.4837
rwrist -76.7249
rhand 39.2516 -8.10328
rfingers 7.12502
rthumb 61.7719 -19.8783
lclavicle 8.94531e-016 1.90833e-014
lhumerus -3.5534 -26.0875 62.9728
lradius 70.7237
lwrist 60.8207
lhand 37.3962 24.3326
lfingers 7.12502
lthumb 60.2039 37.897
rfemur -56.1045 -14.8781 383.404
rtibia 117.971
rfoot 58.2753 -3.86846
rtoes 13.2521
lfemur -39.069 -11.3973 -25.8014
ltibia 62.1196
lfoot -25.2672 13.1144
ltoes -16.3732
564
root 0.852062 15.5455 2.91835 -172.949 -4.33574 -180.426
lowerback 5.83705 -0.430056 -9.46974
upperback 0.237428 -1.26952 -0.0804674
thorax -2.83799 -0.535455 5.34191
lowerneck -18.4421 -0.762475 1.89582
upperneck 23.8865 -5.11089 8.18896
head 11.0124 -1.57482 1.80477
rclavicle -2.127e-014 0
rhumerus -16.7977 9.38884 -29.1034
rradius 71.8313
rwrist -75.6274
rhand 38.7972 -6.90304
rfingers 7.12502
rthumb 61.3908 -19.1353
lclavicle -2.127e-014 0
lhumerus 2.41196 -28.3849 59.7482
lradius 72.9062
lwrist 60.1073
lhand 38.3608 24.3839
lfingers 7.12502
lthumb 61.023 37.0434
rfemur -61.5068 -18.4682 382.062
rtibia 123.052
rfoot 58.58 -2.21247
rtoes 11.4298
lfemur -38.147 -12.911 -26.5622
ltibia 62.1169
lfoot -26.079 13.1521
ltoes -15.3587
565
root 0.861002 15.5096 2.80652 -172.633 -6.57676 -181.145
lowerback 6.8948 -1.34347 -10.1375
upperback 0.198578 -2.65502 0.0794988
thorax -3.2132 -1.19459 6.02815
lowerneck -19.1077 -0.405036 2.45004
upperneck 24.0986 -4.56268 7.45032
head 11.1654 -1.31708 1.53081
rclavicle -9.93923e-017 -3.97569e-015
rhumerus -14.7656 8.50495 -25.5957
rradius 69.8661
rwrist -74.0194
rhand 39.699 -6.52097
rfingers 7.12502
rthumb 62.1452 -17.8328
lclavicle -9.93923e-017 -3.97569e-015
lhumerus 8.75302 -30.2595 55.5352
lradius 75.2407
lwrist 59.1317
lhand 38.2038 22.7738
lfingers 7.12502
lthumb 60.8902 35.5843
rfemur -68.1159 -22.4549 380.483
rtibia 127.715
rfoot 59.7349 -0.477972
rtoes 13.152
lfemur -37.8565 -14.6011 -27.2942
ltibia 61.8778
lfoot -26.2469 13.035
ltoes -15.7633
566
root 0.873408 15.4872 2.68626 -171.52 -8.812 -181.19
lowerback 6.98892 -2.39941 -10.1137
upperback -0.0191638 -4.04592 0.498891
thorax -3.21766 -1.86696 6.57282
lowerneck -19.8502 -1.32839 3.35918
upperneck 24.4884 -3.74843 6.09493
head 11.3612 -0.205704 1.17129
rclavicle 1.32192e-014 7.15625e-015
rhumerus -13.0402 8.33641 -22.3425
rradius 68.4395
rwrist -72.3663
rhand 39.4549 -6.69881
rfingers 7.12502
rthumb 61.9418 -18.265
lclavicle 1.32192e-014 7.15625e-015
lhumerus 14.7267 -31.4596 50.9486
lradius 78.1079
lwrist 58.6394
lhand 38.4359 24.1823
lfingers 7.12502
lthumb 61.0864 36.7692
rfemur -75.9389 -25.8068 380.407
rtibia 131.68
rfoot 61.9965 1.94658
rtoes 18.3647
lfemur -38.4757 -15.9769 -26.9542
ltibia 61.6764
lfoot -25.8967 12.7131
ltoes -17.4526
567
root 0.873209 15.5435 2.53942 -170.233 -11.0089 -180.426
lowerback 6.6553 -3.4939 -9.10974
upperback -0.38549 -5.35058 1.19256
thorax -3.19233 -2.50545 6.81672
lowerneck -20.3488 -1.20917 3.51061
upperneck 24.6119 -3.50776 5.21917
head 11.4719 -0.217727 0.855495
rclavicle 6.85807e-014 2.10712e-014
rhumerus -11.6214 8.81285 -19.3027
rradius 67.1248
rwrist -70.707
rhand 38.5417 -6.63428
rfingers 7.12502
rthumb 61.1757 -19.1182
lclavicle 6.85807e-014 2.10712e-014
lhumerus 19.7608 -31.8949 46.7219
lradius 80.5279
lwrist 56.7083
lhand 40.0342 24.6511
lfingers 7.12502
lthumb 62.4236 35.6074
rfemur -83.432 -27.8257 381.59
rtibia 134.123
rfoot 61.983 4.2004
rtoes 14.5835
lfemur -39.2235 -16.958 -25.5594
ltibia 61.0423
lfoot -25.41 11.915
ltoes -17.9523
568
root 0.87387 15.6609 2.38595 -169.312 -12.8526 -179.607
lowerback 6.71337 -4.37653 -7.97866
upperback -0.637643 -6.41687 1.83679
thorax -3.34044 -3.03302 6.94405
lowerneck -21.3477 -1.07368 3.61812
upperneck 24.888 -3.29554 4.43488
head 11.7465 -0.224565 0.576261
rclavicle 4.77083e-015 -1.86858e-014
rhumerus -10.4748 9.36231 -16.6326
rradius 65.4947
rwrist -68.7191
rhand 39.4506 -7.48132
rfingers 7.12502
rthumb 61.9382 -19.0519
lclavicle 4.77083e-015 -1.86858e-014
lhumerus 25.2443 -32.1471 41.873
lradius 82.3053
lwrist 54.0926
lhand 42.9723 24.1957
lfingers 7.12502
lthumb 64.8086 31.6881
rfemur -89.8334 -28.9275 382.572
rtibia 135.431
rfoot 63.7396 6.11964
rtoes 17.9775
lfemur -39.3189 -17.5051 -24.1549
ltibia 59.8692
lfoot -25.0338 10.6898
ltoes -16.5602
